<?xml version="1.0" standalone="no"?>
<!DOCTYPE svg PUBLIC "-//W3C//DTD SVG 20010904//EN"
 "http://www.w3.org/TR/2001/REC-SVG-20010904/DTD/svg10.dtd">
<svg version="1.0" xmlns="http://www.w3.org/2000/svg"
 width="512.000000pt" height="512.000000pt" viewBox="0 0 512.000000 512.000000"
 preserveAspectRatio="xMidYMid meet">
<metadata>
Created by potrace 1.14, written by Peter Selinger 2001-2017
</metadata>
<g transform="translate(0.000000,512.000000) scale(0.100000,-0.100000)"
fill="#000000" stroke="none">
<path d="M2234 5022 c-17 -15 -72 -60 -122 -101 l-91 -75 38 -45 c20 -25 106
-128 189 -228 l152 -182 -2 -337 -3 -336 -145 106 c-80 58 -158 116 -174 128
-15 12 -81 60 -146 107 -65 47 -181 132 -258 189 -77 56 -143 102 -146 102 -3
0 -4 -6 -1 -12 2 -7 6 -45 10 -84 3 -39 7 -80 9 -90 2 -11 7 -55 11 -99 3 -43
8 -82 10 -85 1 -3 6 -43 9 -90 4 -47 9 -94 11 -105 2 -11 7 -51 10 -88 4 -37
8 -76 10 -86 2 -9 6 -51 9 -92 4 -41 8 -86 10 -99 3 -14 7 -51 11 -83 l7 -59
-24 13 c-13 6 -164 93 -337 192 -239 138 -316 187 -323 206 -6 14 -14 35 -18
46 -5 11 -34 90 -65 175 -103 284 -113 305 -129 302 -8 -1 -64 -21 -123 -43
-178 -66 -163 -57 -151 -87 11 -29 55 -150 111 -304 l35 -97 -27 -5 c-23 -5
-85 -15 -176 -30 -16 -3 -73 -13 -125 -22 -52 -9 -101 -17 -107 -17 -7 0 -13
-2 -13 -5 0 -11 52 -307 55 -310 2 -3 97 11 155 23 13 2 42 7 65 10 22 3 47 8
55 10 8 2 33 7 55 10 23 3 50 7 60 9 97 18 173 30 185 30 8 -1 150 -79 315
-174 165 -96 312 -181 327 -189 16 -9 28 -19 28 -22 0 -4 -39 -24 -87 -44 -49
-21 -110 -48 -138 -60 -27 -13 -106 -48 -175 -78 -69 -30 -155 -69 -193 -86
-37 -17 -70 -31 -72 -31 -3 0 -38 -15 -77 -33 -40 -18 -108 -48 -150 -67 -43
-18 -78 -36 -78 -40 0 -3 55 -30 122 -60 68 -29 262 -115 433 -190 171 -76
334 -148 363 -160 28 -12 52 -25 52 -29 0 -5 -104 -67 -343 -204 -18 -10 -97
-56 -177 -102 l-145 -84 -130 24 c-71 13 -148 26 -170 29 -22 3 -51 8 -65 11
-14 2 -38 7 -55 10 -16 3 -58 10 -93 16 -35 6 -65 9 -67 7 -2 -2 -6 -17 -9
-33 -3 -17 -14 -84 -25 -150 -11 -66 -17 -122 -13 -126 4 -3 39 -11 77 -17 39
-7 79 -14 90 -16 11 -2 66 -11 122 -21 56 -9 110 -18 120 -20 10 -2 21 -4 25
-4 7 -1 -12 -64 -31 -106 -12 -25 -109 -295 -113 -313 -2 -8 22 -22 62 -36 36
-13 102 -38 148 -55 l83 -31 8 23 c4 12 41 110 80 217 40 107 75 202 78 210 4
8 14 35 23 60 16 44 18 46 281 197 145 84 294 171 332 193 37 22 70 40 72 40
3 0 3 -17 1 -37 -3 -21 -7 -67 -11 -103 -3 -36 -8 -76 -10 -90 -2 -14 -6 -54
-10 -90 -3 -36 -8 -81 -10 -100 -2 -19 -7 -60 -10 -90 -3 -30 -8 -71 -10 -90
-2 -19 -7 -64 -11 -100 -3 -36 -8 -73 -10 -83 -1 -10 -6 -52 -10 -94 -3 -42
-9 -101 -13 -130 -4 -30 -5 -55 -2 -57 3 -2 49 27 101 66 181 133 266 195 475
348 116 84 227 165 247 181 20 16 39 29 42 29 3 0 6 -151 6 -336 l0 -335 -42
-52 c-24 -29 -46 -54 -49 -57 -4 -3 -39 -45 -79 -95 -41 -49 -76 -92 -79 -95
-3 -3 -34 -39 -67 -80 l-62 -76 62 -51 c33 -27 89 -73 123 -102 l61 -51 144
174 c79 96 145 175 148 175 3 0 70 -79 148 -175 l144 -174 61 51 c34 29 88 73
119 98 60 48 67 60 45 83 -7 7 -90 106 -185 220 l-172 208 0 335 c0 184 2 335
5 335 4 0 137 -96 290 -210 173 -129 575 -420 579 -420 3 0 4 6 1 13 -2 6 -6
44 -9 82 -4 39 -11 108 -16 155 -10 84 -16 139 -26 235 -2 28 -7 66 -9 85 -7
49 -14 118 -20 187 -3 32 -7 74 -10 93 -3 19 -7 56 -10 83 -3 26 -7 67 -10 92
-4 40 -3 44 13 37 10 -4 110 -61 222 -126 113 -65 256 -149 319 -185 l114 -66
29 -80 c17 -44 53 -141 80 -215 92 -247 95 -255 115 -252 16 3 170 59 228 82
11 5 28 11 37 14 19 6 25 -17 -90 296 l-50 135 27 7 c14 4 40 10 58 13 18 3
49 8 69 11 20 3 44 7 53 9 9 1 63 10 121 20 58 10 108 21 112 24 6 5 -6 97
-36 261 -2 14 -5 31 -5 38 -1 13 -16 13 -102 -3 -9 -2 -32 -6 -50 -9 -19 -3
-124 -21 -234 -40 l-200 -34 -95 55 c-52 31 -116 67 -142 82 -177 99 -428 247
-428 252 0 4 15 12 33 19 17 8 70 31 115 52 46 21 86 38 88 38 3 0 43 18 90
40 47 22 88 40 91 40 3 0 32 13 66 28 34 16 158 71 275 122 116 51 212 96 212
100 0 3 -24 17 -52 30 -29 13 -80 35 -113 50 -33 15 -228 100 -432 191 -205
90 -373 166 -373 169 0 3 100 63 223 133 122 71 229 133 237 138 8 5 58 33
110 63 l95 54 135 -23 c74 -13 151 -26 170 -29 19 -3 85 -14 145 -26 61 -11
115 -20 121 -20 10 0 20 39 40 165 2 17 9 55 14 84 6 30 7 58 3 62 -5 4 -96
21 -203 39 -107 17 -205 34 -216 38 -21 7 -20 13 56 217 l78 210 -31 14 c-58
25 -71 30 -170 65 l-98 35 -10 -27 c-21 -53 -82 -219 -116 -312 -19 -52 -37
-102 -40 -110 -4 -8 -13 -35 -22 -60 l-16 -45 -330 -192 c-181 -105 -333 -192
-337 -192 -4 -1 -6 16 -4 37 3 20 7 64 11 96 3 33 8 73 10 90 4 32 13 118 21
196 2 25 6 61 8 80 3 19 8 60 11 90 3 30 8 71 10 90 2 19 7 67 11 105 3 39 8
81 10 95 1 14 6 57 9 95 4 39 8 72 9 75 6 24 -56 -17 -321 -211 -168 -123
-359 -263 -425 -311 -65 -49 -121 -88 -124 -88 -2 0 -4 151 -4 335 l0 336 177
212 c97 117 182 219 189 227 13 15 -1 29 -183 178 l-52 42 -143 -174 c-79 -96
-145 -175 -148 -175 -3 0 -21 20 -40 46 -19 25 -42 53 -51 62 -8 9 -57 67
-109 129 -51 61 -94 112 -94 112 -1 0 -15 -13 -32 -28z m962 -1399 c-7 -62
-14 -125 -21 -188 -7 -63 -15 -141 -20 -180 -2 -16 -6 -61 -10 -100 -7 -73
-16 -86 -75 -117 -14 -7 -85 -48 -158 -90 -73 -43 -146 -85 -162 -93 l-30 -16
0 239 0 239 169 124 c93 68 179 131 191 139 33 23 94 68 105 79 16 16 17 13
11 -36z m-1103 -80 c89 -65 167 -121 172 -126 6 -4 38 -28 73 -53 l62 -46 0
-239 0 -240 -22 12 c-48 25 -383 221 -390 227 -3 4 -10 43 -13 87 -4 44 -9 87
-10 95 -2 8 -6 44 -9 80 -4 36 -9 81 -11 100 -2 19 -7 60 -10 90 -3 30 -8 72
-11 93 -3 20 -2 37 1 37 4 0 79 -53 168 -117z m-225 -770 c26 -14 56 -31 67
-37 100 -54 295 -172 295 -177 0 -4 -24 -20 -52 -36 -29 -16 -121 -68 -203
-116 l-150 -87 -268 118 c-147 64 -267 119 -267 122 0 4 501 230 528 239 2 1
24 -11 50 -26z m1578 -39 c82 -36 174 -77 204 -91 30 -14 83 -36 117 -50 35
-14 63 -28 63 -32 0 -3 -120 -59 -266 -124 l-267 -117 -147 85 c-82 47 -159
91 -171 98 -55 31 -89 52 -89 57 0 5 32 24 160 98 19 11 82 47 140 81 58 33
106 61 106 61 1 0 68 -29 150 -66z m-1046 -693 l0 -239 -230 -168 c-127 -93
-235 -171 -241 -172 -9 -4 -6 52 6 118 2 14 7 61 11 105 3 44 7 82 9 85 2 3 6
43 10 90 5 47 9 94 11 105 1 11 3 32 3 47 1 22 14 34 76 72 42 25 77 46 79 46
2 0 61 34 132 75 71 41 130 75 132 75 1 0 2 -108 2 -239z m550 109 c96 -56
178 -104 181 -108 4 -4 10 -36 13 -72 3 -36 8 -78 10 -95 4 -32 14 -122 21
-194 2 -25 7 -67 10 -95 16 -136 15 -141 -22 -108 -12 9 -116 86 -232 171
l-211 154 0 239 0 239 28 -15 c15 -8 106 -60 202 -116z"/>
</g>
</svg>
